<?xml version="1.0" encoding="UTF-8" standalone="no"?>
<svg
   xmlns:dc="http://purl.org/dc/elements/1.1/"
   xmlns:cc="http://creativecommons.org/ns#"
   xmlns:rdf="http://www.w3.org/1999/02/22-rdf-syntax-ns#"
   xmlns:svg="http://www.w3.org/2000/svg"
   xmlns="http://www.w3.org/2000/svg"
   xmlns:sodipodi="http://sodipodi.sourceforge.net/DTD/sodipodi-0.dtd"
   xmlns:inkscape="http://www.inkscape.org/namespaces/inkscape"
   enable-background="new 0 0 32 32"
   height="28"
   id="Layer_1"
   version="1.1"
   viewBox="0 0 32 28"
   width="32"
   xml:space="preserve"
   sodipodi:docname="iconfinder_bubble_115766.svg"
   inkscape:version="1.0.2-2 (e86c870879, 2021-01-15)"><metadata
     id="metadata12"><rdf:RDF><cc:Work
         rdf:about=""><dc:format>image/svg+xml</dc:format><dc:type
           rdf:resource="http://purl.org/dc/dcmitype/StillImage" /><dc:title></dc:title></cc:Work></rdf:RDF></metadata><defs
     id="defs10" /><sodipodi:namedview
     pagecolor="#ffffff"
     bordercolor="#666666"
     borderopacity="1"
     objecttolerance="10"
     gridtolerance="10"
     guidetolerance="10"
     inkscape:pageopacity="0"
     inkscape:pageshadow="2"
     inkscape:window-width="1920"
     inkscape:window-height="1057"
     id="namedview8"
     showgrid="false"
     fit-margin-top="0"
     fit-margin-left="0"
     fit-margin-right="0"
     fit-margin-bottom="0"
     inkscape:zoom="27.8125"
     inkscape:cx="16"
     inkscape:cy="14"
     inkscape:window-x="-8"
     inkscape:window-y="-8"
     inkscape:window-maximized="1"
     inkscape:current-layer="Layer_1" /><path
     style="fill:#ffffff;fill-opacity:1;stroke:none;stroke-width:1px;stroke-linecap:butt;stroke-linejoin:miter;stroke-opacity:1"
     d="M 8.4853933,19.537079 7.5505618,26.404494 14.346067,21.226966 Z"
     id="path841" /><ellipse
     style="fill:#ffffff;fill-opacity:1;stroke:#000000;stroke-width:0.133;stroke-opacity:0"
     id="path839"
     cx="16.14382"
     cy="12.004495"
     rx="14.777528"
     ry="10.408989" /><g
     id="bubble"
     style="fill:#6a5353;fill-opacity:1"
     transform="translate(0,-2)"><path
       clip-rule="evenodd"
       d="M 16,2 C 7.163,2 0,7.373 0,14 0,18.127 2.779,21.766 7.008,23.926 7.008,23.953 7,23.971 7,24 c 0,1.793 -1.339,3.723 -1.928,4.736 0.001,0 0.002,0 0.002,0 C 5.027,28.846 5,28.967 5,29.094 5,29.594 5.405,30 5.906,30 6,30 6.165,29.975 6.161,29.986 9.286,29.474 12.23,26.603 12.914,25.771 13.913,25.918 14.943,26 16,26 24.835,26 32,20.627 32,14 32,7.373 24.836,2 16,2 Z m 0,22 c -0.917,0 -1.858,-0.07 -2.796,-0.207 -0.097,-0.016 -0.194,-0.021 -0.29,-0.021 -0.594,0 -1.163,0.264 -1.546,0.73 -0.428,0.521 -1.646,1.684 -3.085,2.539 0.39,-0.895 0.695,-1.898 0.716,-2.932 0.006,-0.064 0.009,-0.129 0.009,-0.184 0,-0.752 -0.421,-1.439 -1.09,-1.781 C 4.212,20.252 2,17.207 2,14 2,8.486 8.28,4 16,4 c 7.718,0 14,4.486 14,10 0,5.514 -6.281,10 -14,10 z"
       fill="#333333"
       fill-rule="evenodd"
       id="path4"
       style="fill:#ffffff;fill-opacity:1" /></g></svg>
